# xmcd CD database file
#
# Track frame offsets:
#	150
#	16047
#	38437
#	48945
#	68435
#	79067
#	98960
#	114535
#	128297
#	147807
#
# Disc length: 2119 seconds
#
# Revision: 0
# Processed by: cddbd v1.5.2PL0 Copyright (c) Steve Scherf et al.
# Submitted via: CDex 1.51
#
DISCID=6a08450a
DTITLE=Reinaldo Amorin - Casteluzzo
DYEAR=1900
DGENRE=New Age
TTITLE0=A novidade de bates
TTITLE1=Aria na quarta corda
TTITLE2=Jesus, alegria dos homens
TTITLE3=Adajo de aranjuez
TTITLE4=Greensleves
TTITLE5=A verdade presente
TTITLE6=Meditation
TTITLE7=A Tempo
TTITLE8=Fora de Tempo
TTITLE9=O Amanhecer
EXTD=
EXTT0=
EXTT1=
EXTT2=
EXTT3=
EXTT4=
EXTT5=
EXTT6=
EXTT7=
EXTT8=
EXTT9=
PLAYORDER=
